<svg xmlns="http://www.w3.org/2000/svg" xmlns:xlink="http://www.w3.org/1999/xlink" width="100" zoomAndPan="magnify" viewBox="0 0 75 74.999997" height="100" preserveAspectRatio="xMidYMid meet" version="1.0"><defs><clipPath id="f3f84cff85"><path d="M 0 0.1875 L 75 0.1875 L 75 75 L 0 75 Z M 0 0.1875 " clip-rule="nonzero"/></clipPath></defs><g clip-path="url(#f3f84cff85)"><path fill="#000000" d="M 73.777344 17.734375 L 64.601562 17.734375 L 64.601562 8.535156 C 64.601562 7.867188 64.0625 7.328125 63.394531 7.328125 L 48.605469 7.328125 C 47.9375 7.328125 47.398438 7.867188 47.398438 8.535156 L 47.398438 17.734375 L 38.222656 17.734375 C 37.558594 17.734375 37.019531 18.273438 37.019531 18.941406 L 37.019531 33.769531 C 37.019531 34.4375 37.558594 34.980469 38.222656 34.980469 L 47.398438 34.980469 L 47.398438 44.175781 C 47.398438 44.84375 47.9375 45.386719 48.605469 45.386719 L 54.332031 45.386719 C 53.890625 51.34375 52.4375 57.128906 50 62.597656 L 47.871094 67.382812 C 46.414062 70.65625 43.160156 72.769531 39.585938 72.769531 C 38.492188 72.769531 37.601562 71.878906 37.601562 70.78125 L 37.601562 65.378906 C 37.601562 59.90625 36.710938 54.5 34.953125 49.3125 C 34.503906 47.988281 33.3125 47.132812 31.914062 47.132812 C 30.515625 47.132812 29.324219 47.988281 28.875 49.3125 C 27.117188 54.5 26.226562 59.90625 26.226562 65.378906 L 26.226562 70.78125 C 26.226562 71.878906 25.335938 72.769531 24.242188 72.769531 C 20.667969 72.769531 17.414062 70.65625 15.957031 67.382812 L 13.828125 62.597656 C 10.859375 55.9375 9.355469 48.863281 9.355469 41.566406 C 9.355469 37.085938 8.027344 32.820312 5.511719 29.234375 C 3.480469 26.335938 2.429688 22.921875 2.464844 19.367188 C 2.511719 14.960938 4.261719 10.800781 7.386719 7.65625 C 10.515625 4.507812 14.660156 2.742188 19.050781 2.679688 C 23.171875 2.625 27.085938 4.042969 30.1875 6.695312 C 28.625 8.445312 27.390625 10.472656 26.542969 12.699219 C 26.308594 13.324219 26.621094 14.023438 27.242188 14.261719 C 27.386719 14.3125 27.53125 14.339844 27.671875 14.339844 C 28.15625 14.339844 28.617188 14.039062 28.796875 13.558594 C 30.003906 10.375 32.125 7.65625 34.925781 5.699219 C 37.757812 3.722656 41.074219 2.679688 44.535156 2.679688 C 44.582031 2.679688 44.625 2.679688 44.671875 2.679688 C 47.699219 2.703125 50.675781 3.574219 53.28125 5.191406 C 53.847656 5.542969 54.589844 5.367188 54.941406 4.800781 C 55.292969 4.234375 55.117188 3.488281 54.554688 3.136719 C 51.570312 1.285156 48.160156 0.289062 44.6875 0.261719 C 40.683594 0.234375 36.828125 1.425781 33.550781 3.714844 C 32.980469 4.113281 32.4375 4.539062 31.914062 4.992188 C 28.339844 1.867188 23.808594 0.195312 19.023438 0.261719 C 13.992188 0.335938 9.257812 2.355469 5.683594 5.949219 C 2.109375 9.546875 0.109375 14.300781 0.0546875 19.339844 C 0.0117188 23.40625 1.21875 27.308594 3.539062 30.625 C 5.769531 33.804688 6.945312 37.589844 6.945312 41.570312 C 6.945312 49.207031 8.519531 56.613281 11.625 63.585938 L 13.757812 68.371094 C 15.601562 72.511719 19.714844 75.1875 24.242188 75.1875 C 26.667969 75.1875 28.636719 73.210938 28.636719 70.78125 L 28.636719 65.378906 C 28.636719 60.167969 29.484375 55.027344 31.15625 50.089844 C 31.324219 49.601562 31.742188 49.546875 31.914062 49.546875 C 32.085938 49.546875 32.503906 49.601562 32.671875 50.089844 C 34.339844 55.027344 35.191406 60.167969 35.191406 65.378906 L 35.191406 70.78125 C 35.191406 73.210938 37.164062 75.1875 39.585938 75.1875 C 44.113281 75.1875 48.226562 72.511719 50.070312 68.371094 L 52.203125 63.585938 C 54.777344 57.804688 56.304688 51.6875 56.746094 45.386719 L 63.394531 45.386719 C 64.0625 45.386719 64.601562 44.847656 64.601562 44.179688 L 64.601562 33.773438 C 64.601562 33.105469 64.0625 32.5625 63.394531 32.5625 C 62.730469 32.5625 62.191406 33.105469 62.191406 33.773438 L 62.191406 42.96875 L 49.808594 42.96875 L 49.808594 33.773438 C 49.808594 33.105469 49.269531 32.5625 48.605469 32.5625 L 39.429688 32.5625 L 39.429688 20.152344 L 48.605469 20.152344 C 49.269531 20.152344 49.808594 19.609375 49.808594 18.941406 L 49.808594 9.742188 L 62.191406 9.742188 L 62.191406 18.941406 C 62.191406 19.609375 62.730469 20.148438 63.394531 20.148438 L 72.570312 20.148438 L 72.570312 32.5625 L 67.878906 32.5625 C 67.210938 32.5625 66.671875 33.101562 66.671875 33.769531 C 66.671875 34.4375 67.210938 34.980469 67.878906 34.980469 L 73.777344 34.980469 C 74.441406 34.980469 74.980469 34.4375 74.980469 33.769531 L 74.980469 18.941406 C 74.980469 18.273438 74.441406 17.734375 73.777344 17.734375 Z M 73.777344 17.734375 " fill-opacity="1" fill-rule="nonzero"/></g><path fill="#000000" d="M 10.417969 13.558594 C 12.449219 10.398438 15.898438 8.507812 19.644531 8.507812 C 20.308594 8.507812 20.851562 7.96875 20.851562 7.300781 C 20.851562 6.632812 20.308594 6.09375 19.644531 6.09375 C 15.074219 6.09375 10.867188 8.394531 8.390625 12.25 C 8.03125 12.8125 8.191406 13.5625 8.753906 13.921875 C 8.957031 14.050781 9.179688 14.113281 9.402344 14.113281 C 9.800781 14.113281 10.1875 13.917969 10.417969 13.558594 Z M 10.417969 13.558594 " fill-opacity="1" fill-rule="nonzero"/><path fill="#000000" d="M 7.792969 16.472656 C 7.132812 16.371094 6.519531 16.828125 6.421875 17.488281 C 6.320312 18.148438 6.269531 18.828125 6.269531 19.5 C 6.269531 20.167969 6.808594 20.707031 7.476562 20.707031 C 8.140625 20.707031 8.679688 20.167969 8.679688 19.5 C 8.679688 18.945312 8.722656 18.390625 8.804688 17.847656 C 8.902344 17.1875 8.449219 16.570312 7.792969 16.472656 Z M 7.792969 16.472656 " fill-opacity="1" fill-rule="nonzero"/></svg>