<svg xmlns="http://www.w3.org/2000/svg" xmlns:xlink="http://www.w3.org/1999/xlink" width="100" zoomAndPan="magnify" viewBox="0 0 75 74.999997" height="100" preserveAspectRatio="xMidYMid meet" version="1.0"><path fill="#000000" d="M 50.902344 52.261719 C 50.761719 52.183594 50.609375 52.140625 50.445312 52.125 C 50.285156 52.109375 50.128906 52.125 49.972656 52.175781 C 49.820312 52.222656 49.679688 52.296875 49.554688 52.398438 C 49.429688 52.503906 49.328125 52.625 49.25 52.769531 C 42.726562 65.070312 29.535156 72.371094 20.128906 72.371094 C 18.40625 72.402344 16.734375 72.125 15.113281 71.539062 C 7.683594 68.714844 7.34375 61.722656 6.976562 54.351562 C 6.894531 52.34375 6.78125 50.3125 6.527344 48.363281 C 8.398438 49.757812 10.429688 50.867188 12.617188 51.683594 C 14.804688 52.503906 17.0625 53 19.394531 53.179688 L 20.339844 53.25 C 20.832031 53.378906 21.289062 53.582031 21.71875 53.855469 C 22.148438 54.128906 22.527344 54.457031 22.851562 54.847656 C 23.179688 55.238281 23.441406 55.664062 23.636719 56.136719 C 23.832031 56.605469 23.953125 57.09375 23.996094 57.597656 C 24.003906 57.761719 24.042969 57.917969 24.113281 58.066406 C 24.179688 58.210938 24.277344 58.339844 24.398438 58.453125 C 24.515625 58.5625 24.65625 58.644531 24.808594 58.699219 C 24.960938 58.753906 25.121094 58.777344 25.28125 58.769531 C 25.445312 58.765625 25.601562 58.726562 25.75 58.65625 C 25.894531 58.585938 26.023438 58.492188 26.136719 58.371094 C 26.246094 58.25 26.328125 58.113281 26.382812 57.960938 C 26.4375 57.808594 26.460938 57.648438 26.453125 57.484375 C 26.335938 55.996094 25.824219 54.660156 24.914062 53.472656 L 26.78125 53.472656 C 32.332031 53.644531 36.003906 53.742188 37.515625 56.03125 C 37.75 56.40625 38.085938 56.59375 38.53125 56.597656 C 38.777344 56.59375 39 56.527344 39.210938 56.398438 C 39.34375 56.308594 39.457031 56.195312 39.550781 56.058594 C 39.640625 55.921875 39.703125 55.777344 39.734375 55.617188 C 39.769531 55.457031 39.769531 55.296875 39.742188 55.136719 C 39.710938 54.976562 39.652344 54.828125 39.5625 54.6875 C 37.359375 51.328125 32.953125 51.199219 26.851562 51.03125 C 24.6875 50.960938 22.246094 50.902344 19.605469 50.679688 C 18.914062 50.679688 18.191406 50.523438 17.597656 50.410156 C 17.847656 50.265625 18.082031 50.097656 18.304688 49.914062 C 18.960938 49.238281 19.445312 48.457031 19.765625 47.570312 C 20.082031 46.683594 20.203125 45.769531 20.128906 44.832031 C 20.097656 44.519531 19.96875 44.257812 19.738281 44.042969 C 19.511719 43.828125 19.238281 43.71875 18.925781 43.714844 L 18.800781 43.714844 C 18.636719 43.730469 18.484375 43.777344 18.34375 43.851562 C 18.199219 43.929688 18.074219 44.027344 17.972656 44.152344 C 17.867188 44.277344 17.789062 44.414062 17.742188 44.570312 C 17.691406 44.722656 17.671875 44.878906 17.683594 45.042969 C 17.722656 45.613281 17.644531 46.167969 17.449219 46.707031 C 17.257812 47.246094 16.960938 47.722656 16.566406 48.136719 C 15.785156 48.746094 14.902344 49.019531 13.914062 48.953125 C 13.207031 48.941406 12.511719 48.863281 11.820312 48.714844 C 9.433594 47.636719 7.324219 46.160156 5.496094 44.28125 C 5.269531 43.570312 4.980469 42.890625 4.632812 42.230469 C 2.964844 39.136719 6.46875 35.167969 10.183594 30.933594 C 14.730469 25.75 19.871094 19.886719 15.832031 14.210938 C 14.675781 12.515625 10.988281 10.253906 9.320312 9.292969 C 9.757812 7.078125 10.0625 4.847656 10.238281 2.597656 C 13.457031 3.152344 16.46875 4.257812 19.28125 5.917969 C 19.414062 6.046875 19.570312 6.140625 19.746094 6.199219 C 21.214844 7.132812 22.585938 8.195312 23.859375 9.382812 C 25.132812 10.570312 26.285156 11.867188 27.320312 13.269531 C 28.351562 14.671875 29.246094 16.15625 30.003906 17.726562 C 30.761719 19.292969 31.367188 20.917969 31.820312 22.597656 C 31.902344 22.855469 32.054688 23.058594 32.269531 23.21875 C 32.484375 23.378906 32.726562 23.457031 32.996094 23.460938 L 33.363281 23.460938 C 33.515625 23.410156 33.65625 23.332031 33.777344 23.226562 C 33.902344 23.121094 34.003906 23 34.078125 22.855469 C 34.152344 22.710938 34.199219 22.558594 34.214844 22.398438 C 34.230469 22.234375 34.214844 22.078125 34.167969 21.921875 C 33.300781 18.828125 31.984375 15.941406 30.21875 13.257812 C 28.453125 10.574219 26.324219 8.222656 23.828125 6.199219 C 25.597656 6.179688 27.355469 6.332031 29.09375 6.664062 C 30.835938 6.992188 32.527344 7.492188 34.164062 8.164062 C 35.804688 8.832031 37.363281 9.660156 38.835938 10.640625 C 40.3125 11.621094 41.675781 12.742188 42.921875 13.996094 L 43.121094 14.195312 C 43.503906 14.589844 43.871094 15 44.210938 15.410156 C 44.351562 15.578125 44.503906 15.75 44.632812 15.917969 C 46.574219 18.332031 48.144531 20.960938 49.351562 23.8125 C 49.445312 24.035156 49.59375 24.214844 49.796875 24.347656 C 50 24.480469 50.222656 24.546875 50.464844 24.546875 C 50.636719 24.550781 50.800781 24.515625 50.960938 24.449219 C 51.109375 24.382812 51.238281 24.292969 51.351562 24.175781 C 51.464844 24.058594 51.550781 23.925781 51.609375 23.773438 C 51.667969 23.625 51.699219 23.46875 51.695312 23.304688 C 51.691406 23.144531 51.660156 22.988281 51.597656 22.839844 C 50.53125 20.339844 49.207031 17.984375 47.628906 15.777344 C 48.285156 14.878906 49.113281 14.179688 50.109375 13.683594 C 51.109375 13.183594 52.164062 12.941406 53.277344 12.953125 C 53.65625 12.953125 53.882812 12.953125 53.898438 12.953125 L 54.027344 12.953125 C 54.230469 12.957031 54.421875 12.914062 54.605469 12.824219 C 54.789062 12.734375 54.9375 12.605469 55.058594 12.441406 C 55.175781 12.273438 55.25 12.089844 55.277344 11.890625 C 55.304688 11.6875 55.28125 11.492188 55.210938 11.300781 L 52.699219 5.410156 C 52.535156 5.035156 52.257812 4.800781 51.863281 4.703125 C 50.53125 4.3125 49.171875 4.117188 47.78125 4.109375 C 46.105469 4.128906 44.480469 4.433594 42.910156 5.023438 C 41.335938 5.617188 39.917969 6.460938 38.644531 7.554688 C 36.257812 6.238281 33.738281 5.25 31.089844 4.601562 C 28.4375 3.949219 25.75 3.652344 23.023438 3.714844 C 22.148438 3.714844 21.257812 3.714844 20.324219 3.800781 C 16.859375 1.757812 13.132812 0.488281 9.136719 0 L 9.136719 0.480469 L 9.136719 0 C 8.816406 0 8.53125 0.109375 8.289062 0.324219 C 8.015625 0.546875 7.867188 0.835938 7.839844 1.1875 C 7.699219 4.039062 7.335938 6.863281 6.75 9.660156 C 6.671875 9.9375 6.691406 10.207031 6.800781 10.472656 C 6.910156 10.734375 7.09375 10.9375 7.34375 11.074219 C 9.40625 12.21875 12.996094 14.476562 13.882812 15.71875 C 16.582031 19.535156 13.445312 23.617188 8.363281 29.40625 C 4.265625 34.066406 0.0273438 38.898438 2.5 43.53125 C 4.066406 46.425781 4.265625 50.394531 4.464844 54.605469 C 4.832031 62.078125 5.238281 70.550781 14.167969 73.96875 C 16.058594 74.660156 18.011719 74.996094 20.027344 74.972656 C 30.988281 74.972656 45.027344 66.101562 51.414062 54.097656 C 51.515625 53.945312 51.585938 53.777344 51.613281 53.597656 C 51.644531 53.414062 51.636719 53.238281 51.585938 53.058594 C 51.539062 52.882812 51.453125 52.722656 51.332031 52.582031 C 51.214844 52.445312 51.070312 52.335938 50.902344 52.261719 Z M 50.679688 6.921875 L 52.230469 10.566406 C 51.035156 10.671875 49.902344 11 48.839844 11.554688 C 47.773438 12.105469 46.851562 12.839844 46.074219 13.757812 C 44.519531 11.929688 42.765625 10.324219 40.804688 8.941406 C 41.796875 8.179688 42.886719 7.59375 44.070312 7.1875 C 45.253906 6.78125 46.472656 6.574219 47.726562 6.566406 C 48.722656 6.570312 49.707031 6.6875 50.679688 6.921875 Z M 50.679688 6.921875 " fill-opacity="1" fill-rule="nonzero"/><path fill="#000000" d="M 74.476562 20.535156 C 74.230469 20.238281 73.917969 20.09375 73.53125 20.097656 C 73.304688 20.101562 73.09375 20.15625 72.894531 20.269531 L 59.675781 28.472656 L 58.785156 23.105469 C 58.746094 22.871094 58.644531 22.664062 58.484375 22.488281 C 58.324219 22.3125 58.132812 22.191406 57.902344 22.125 C 57.671875 22.0625 57.441406 22.066406 57.214844 22.136719 C 56.984375 22.207031 56.792969 22.332031 56.636719 22.515625 L 38.914062 43.617188 C 38.710938 43.847656 38.613281 44.113281 38.613281 44.421875 C 38.613281 44.726562 38.710938 44.996094 38.914062 45.226562 C 39.160156 45.488281 39.46875 45.621094 39.832031 45.621094 C 40.082031 45.621094 40.3125 45.550781 40.523438 45.410156 L 52.34375 37.160156 L 53.164062 42.203125 C 53.203125 42.433594 53.300781 42.636719 53.457031 42.8125 C 53.609375 42.988281 53.800781 43.109375 54.027344 43.179688 C 54.144531 43.199219 54.261719 43.199219 54.378906 43.179688 C 54.738281 43.175781 55.039062 43.042969 55.28125 42.78125 L 74.433594 22.148438 C 74.640625 21.921875 74.75 21.65625 74.757812 21.351562 C 74.765625 21.042969 74.671875 20.773438 74.476562 20.535156 Z M 53.742188 33.898438 C 53.589844 33.835938 53.429688 33.804688 53.261719 33.800781 C 53.003906 33.804688 52.769531 33.878906 52.554688 34.027344 L 46.695312 38.136719 L 56.722656 26.15625 L 57.472656 30.691406 C 57.546875 31.121094 57.78125 31.421875 58.179688 31.597656 C 58.339844 31.675781 58.507812 31.714844 58.6875 31.710938 C 58.917969 31.710938 59.128906 31.652344 59.320312 31.527344 L 66.554688 27.078125 L 55.253906 39.351562 L 54.519531 34.859375 C 54.4375 34.394531 54.179688 34.074219 53.742188 33.898438 Z M 53.742188 33.898438 " fill-opacity="1" fill-rule="nonzero"/><path fill="#000000" d="M 57.554688 45.972656 L 57.34375 45.972656 L 48.671875 47.386719 C 48.371094 47.453125 48.125 47.609375 47.941406 47.859375 C 47.757812 48.109375 47.679688 48.386719 47.707031 48.695312 C 47.734375 49.003906 47.859375 49.265625 48.082031 49.480469 C 48.308594 49.691406 48.574219 49.804688 48.882812 49.816406 L 49.082031 49.816406 L 57.753906 48.402344 C 58.054688 48.339844 58.300781 48.183594 58.484375 47.9375 C 58.667969 47.6875 58.75 47.410156 58.722656 47.101562 C 58.699219 46.792969 58.574219 46.53125 58.351562 46.320312 C 58.128906 46.105469 57.863281 45.988281 57.554688 45.972656 Z M 57.554688 45.972656 " fill-opacity="1" fill-rule="nonzero"/><path fill="#000000" d="M 42.089844 29.660156 C 41.976562 29.648438 41.863281 29.648438 41.75 29.660156 C 41.476562 29.660156 41.230469 29.738281 41.011719 29.902344 C 40.792969 30.0625 40.644531 30.273438 40.566406 30.535156 L 38.488281 37.867188 C 38.441406 38.023438 38.429688 38.179688 38.445312 38.34375 C 38.464844 38.503906 38.511719 38.65625 38.589844 38.796875 C 38.667969 38.9375 38.769531 39.058594 38.898438 39.160156 C 39.023438 39.261719 39.167969 39.335938 39.320312 39.378906 C 39.433594 39.398438 39.546875 39.398438 39.660156 39.378906 C 39.933594 39.378906 40.179688 39.296875 40.398438 39.132812 C 40.613281 38.964844 40.761719 38.753906 40.832031 38.488281 L 42.921875 31.074219 C 42.984375 30.765625 42.9375 30.476562 42.777344 30.207031 C 42.617188 29.9375 42.390625 29.753906 42.089844 29.660156 Z M 42.089844 29.660156 " fill-opacity="1" fill-rule="nonzero"/></svg>