<svg xmlns="http://www.w3.org/2000/svg" xmlns:xlink="http://www.w3.org/1999/xlink" width="100" zoomAndPan="magnify" viewBox="0 0 75 74.999997" height="100" preserveAspectRatio="xMidYMid meet" version="1.0"><defs><clipPath id="10a87ec266"><path d="M 3.1875 12 L 52 12 L 52 20 L 3.1875 20 Z M 3.1875 12 " clip-rule="nonzero"/></clipPath><clipPath id="d016bb3a55"><path d="M 3.1875 68 L 72.1875 68 L 72.1875 75 L 3.1875 75 Z M 3.1875 68 " clip-rule="nonzero"/></clipPath></defs><path fill="#000000" d="M 27.683594 16.253906 C 26.386719 16.253906 25.328125 15.203125 25.328125 13.910156 L 25.328125 12.046875 L 23.453125 12.046875 C 20.351562 12.046875 20.351562 7.355469 23.453125 7.355469 L 25.328125 7.355469 L 25.328125 5.496094 C 25.328125 2.40625 30.042969 2.40625 30.042969 5.496094 L 30.042969 7.355469 L 31.914062 7.355469 C 35.019531 7.355469 35.019531 12.046875 31.914062 12.046875 L 30.042969 12.046875 L 30.042969 13.910156 C 30.042969 15.203125 28.984375 16.253906 27.683594 16.253906 Z M 23.453125 9.113281 C 22.679688 9.113281 22.679688 10.289062 23.453125 10.289062 C 27.628906 10.289062 27.09375 9.757812 27.09375 13.910156 C 27.09375 14.6875 28.277344 14.675781 28.277344 13.910156 C 28.277344 9.757812 27.742188 10.289062 31.917969 10.289062 C 32.691406 10.289062 32.691406 9.113281 31.917969 9.113281 C 27.742188 9.113281 28.277344 9.644531 28.277344 5.492188 C 28.277344 4.726562 27.09375 4.714844 27.09375 5.492188 C 27.09375 9.644531 27.628906 9.113281 23.453125 9.113281 Z M 23.453125 9.113281 " fill-opacity="1" fill-rule="evenodd"/><path fill="#000000" d="M 68.929688 70.019531 L 48.925781 70.019531 C 48.4375 70.019531 48.039062 69.628906 48.039062 69.140625 L 48.039062 28.121094 C 48.039062 27.636719 48.4375 27.242188 48.925781 27.242188 L 68.929688 27.242188 C 69.417969 27.242188 69.816406 27.636719 69.816406 28.121094 L 69.816406 69.140625 C 69.816406 69.628906 69.417969 70.019531 68.929688 70.019531 Z M 49.808594 68.261719 L 68.046875 68.261719 L 68.046875 29 L 49.808594 29 Z M 49.808594 68.261719 " fill-opacity="1" fill-rule="evenodd"/><path fill="#000000" d="M 48.925781 70.019531 L 6.445312 70.019531 C 5.957031 70.019531 5.5625 69.628906 5.5625 69.140625 L 5.5625 18.527344 C 5.5625 18.042969 5.957031 17.648438 6.445312 17.648438 L 48.925781 17.648438 C 49.414062 17.648438 49.808594 18.042969 49.808594 18.527344 L 49.808594 69.140625 C 49.808594 69.628906 49.414062 70.019531 48.925781 70.019531 Z M 7.328125 68.261719 L 48.039062 68.261719 L 48.039062 19.40625 L 7.328125 19.40625 Z M 7.328125 68.261719 " fill-opacity="1" fill-rule="evenodd"/><g clip-path="url(#10a87ec266)"><path fill="#000000" d="M 50.5 19.40625 L 41.59375 19.40625 C 40.429688 19.40625 40.429688 17.648438 41.59375 17.648438 L 49.617188 17.648438 L 49.617188 14.089844 L 41.59375 14.089844 C 40.429688 14.089844 40.429688 12.332031 41.59375 12.332031 L 50.5 12.332031 C 50.988281 12.332031 51.382812 12.726562 51.382812 13.210938 L 51.382812 18.527344 C 51.382812 19.011719 50.988281 19.40625 50.5 19.40625 Z M 13.777344 19.40625 L 4.871094 19.40625 C 4.382812 19.40625 3.988281 19.011719 3.988281 18.527344 L 3.988281 13.210938 C 3.988281 12.726562 4.382812 12.332031 4.871094 12.332031 L 13.777344 12.332031 C 14.941406 12.332031 14.941406 14.089844 13.777344 14.089844 L 5.753906 14.089844 L 5.753906 17.648438 L 13.777344 17.648438 C 14.941406 17.648438 14.941406 19.40625 13.777344 19.40625 Z M 13.777344 19.40625 " fill-opacity="1" fill-rule="evenodd"/></g><path fill="#000000" d="M 70.507812 29 L 48.925781 29 C 48.4375 29 48.042969 28.605469 48.042969 28.121094 L 48.042969 22.804688 C 48.042969 22.320312 48.4375 21.925781 48.925781 21.925781 L 70.507812 21.925781 C 70.992188 21.925781 71.390625 22.320312 71.390625 22.804688 L 71.390625 28.121094 C 71.390625 28.605469 70.992188 29 70.507812 29 Z M 49.808594 27.242188 L 69.621094 27.242188 L 69.621094 23.683594 L 49.808594 23.683594 Z M 49.808594 27.242188 " fill-opacity="1" fill-rule="evenodd"/><g clip-path="url(#d016bb3a55)"><path fill="#000000" d="M 71.300781 74.996094 L 4.074219 74.996094 C 3.585938 74.996094 3.191406 74.601562 3.191406 74.117188 L 3.191406 69.140625 C 3.191406 68.65625 3.585938 68.261719 4.074219 68.261719 L 71.304688 68.261719 C 71.789062 68.261719 72.1875 68.65625 72.1875 69.140625 L 72.1875 74.117188 C 72.1875 74.601562 71.789062 74.996094 71.300781 74.996094 Z M 4.957031 73.238281 L 70.417969 73.238281 L 70.417969 70.019531 L 4.957031 70.019531 Z M 4.957031 73.238281 " fill-opacity="1" fill-rule="evenodd"/></g><path fill="#000000" d="M 37.277344 70.019531 L 18.09375 70.019531 C 17.605469 70.019531 17.210938 69.628906 17.210938 69.140625 L 17.210938 48.257812 C 17.210938 47.773438 17.605469 47.378906 18.09375 47.378906 L 37.277344 47.378906 C 37.765625 47.378906 38.160156 47.773438 38.160156 48.257812 L 38.160156 69.140625 C 38.160156 69.628906 37.765625 70.019531 37.277344 70.019531 Z M 18.976562 68.261719 L 36.394531 68.261719 L 36.394531 49.136719 L 18.976562 49.136719 Z M 18.976562 68.261719 " fill-opacity="1" fill-rule="evenodd"/><path fill="#000000" d="M 27.683594 70.019531 C 27.199219 70.019531 26.800781 69.628906 26.800781 69.140625 L 26.800781 48.257812 C 26.800781 47.101562 28.570312 47.101562 28.570312 48.257812 L 28.570312 69.140625 C 28.570312 69.628906 28.175781 70.019531 27.683594 70.019531 Z M 27.683594 70.019531 " fill-opacity="1" fill-rule="evenodd"/><path fill="#000000" d="M 64.59375 38.058594 L 53.261719 38.058594 C 52.773438 38.058594 52.378906 37.664062 52.378906 37.179688 L 52.378906 32.652344 C 52.378906 32.167969 52.773438 31.773438 53.261719 31.773438 L 64.59375 31.773438 C 65.082031 31.773438 65.476562 32.167969 65.476562 32.652344 L 65.476562 37.179688 C 65.476562 37.667969 65.082031 38.058594 64.59375 38.058594 Z M 54.144531 36.300781 L 63.710938 36.300781 L 63.710938 33.53125 L 54.144531 33.53125 Z M 54.144531 36.300781 " fill-opacity="1" fill-rule="evenodd"/><path fill="#000000" d="M 64.59375 47.203125 L 53.261719 47.203125 C 52.773438 47.203125 52.378906 46.808594 52.378906 46.324219 L 52.378906 41.796875 C 52.378906 41.3125 52.773438 40.917969 53.261719 40.917969 L 64.59375 40.917969 C 65.082031 40.917969 65.476562 41.3125 65.476562 41.796875 L 65.476562 46.324219 C 65.476562 46.808594 65.082031 47.203125 64.59375 47.203125 Z M 54.144531 45.445312 L 63.710938 45.445312 L 63.710938 42.675781 L 54.144531 42.675781 Z M 54.144531 45.445312 " fill-opacity="1" fill-rule="evenodd"/><path fill="#000000" d="M 64.59375 56.347656 L 53.261719 56.347656 C 52.773438 56.347656 52.378906 55.953125 52.378906 55.46875 L 52.378906 50.941406 C 52.378906 50.457031 52.773438 50.0625 53.261719 50.0625 L 64.59375 50.0625 C 65.082031 50.0625 65.476562 50.457031 65.476562 50.941406 L 65.476562 55.46875 C 65.476562 55.953125 65.082031 56.347656 64.59375 56.347656 Z M 54.144531 54.589844 L 63.710938 54.589844 L 63.710938 51.820312 L 54.144531 51.820312 Z M 54.144531 54.589844 " fill-opacity="1" fill-rule="evenodd"/><path fill="#000000" d="M 64.59375 65.488281 L 53.261719 65.488281 C 52.773438 65.488281 52.378906 65.09375 52.378906 64.609375 L 52.378906 60.082031 C 52.378906 59.597656 52.773438 59.203125 53.261719 59.203125 L 64.59375 59.203125 C 65.082031 59.203125 65.476562 59.597656 65.476562 60.082031 L 65.476562 64.609375 C 65.476562 65.09375 65.082031 65.488281 64.59375 65.488281 Z M 54.144531 63.730469 L 63.710938 63.730469 L 63.710938 60.960938 L 54.144531 60.960938 Z M 54.144531 63.730469 " fill-opacity="1" fill-rule="evenodd"/><path fill="#000000" d="M 18.367188 31.816406 L 12.203125 31.816406 C 11.714844 31.816406 11.316406 31.425781 11.316406 30.9375 L 11.316406 24.808594 C 11.316406 24.320312 11.714844 23.929688 12.203125 23.929688 L 18.367188 23.929688 C 18.855469 23.929688 19.25 24.320312 19.25 24.808594 L 19.25 30.941406 C 19.25 31.425781 18.855469 31.816406 18.367188 31.816406 Z M 13.085938 30.058594 L 17.484375 30.058594 L 17.484375 25.683594 L 13.085938 25.683594 Z M 13.085938 30.058594 " fill-opacity="1" fill-rule="evenodd"/><path fill="#000000" d="M 30.769531 31.816406 L 24.601562 31.816406 C 24.113281 31.816406 23.71875 31.425781 23.71875 30.9375 L 23.71875 24.808594 C 23.71875 24.320312 24.113281 23.929688 24.601562 23.929688 L 30.769531 23.929688 C 31.257812 23.929688 31.652344 24.320312 31.652344 24.808594 L 31.652344 30.941406 C 31.652344 31.425781 31.257812 31.816406 30.769531 31.816406 Z M 25.484375 30.058594 L 29.886719 30.058594 L 29.886719 25.683594 L 25.484375 25.683594 Z M 25.484375 30.058594 " fill-opacity="1" fill-rule="evenodd"/><path fill="#000000" d="M 43.171875 31.816406 L 37.003906 31.816406 C 36.515625 31.816406 36.121094 31.425781 36.121094 30.9375 L 36.121094 24.808594 C 36.121094 24.320312 36.515625 23.929688 37.003906 23.929688 L 43.167969 23.929688 C 43.65625 23.929688 44.054688 24.320312 44.054688 24.808594 L 44.054688 30.941406 C 44.054688 31.425781 43.660156 31.816406 43.171875 31.816406 Z M 37.886719 30.058594 L 42.285156 30.058594 L 42.285156 25.683594 L 37.886719 25.683594 Z M 37.886719 30.058594 " fill-opacity="1" fill-rule="evenodd"/><path fill="#000000" d="M 18.367188 42.859375 L 12.203125 42.859375 C 11.714844 42.859375 11.316406 42.464844 11.316406 41.980469 L 11.316406 35.84375 C 11.316406 35.359375 11.714844 34.964844 12.203125 34.964844 L 18.367188 34.964844 C 18.855469 34.964844 19.25 35.359375 19.25 35.84375 L 19.25 41.976562 C 19.25 42.464844 18.855469 42.859375 18.367188 42.859375 Z M 13.085938 41.097656 L 17.484375 41.097656 L 17.484375 36.722656 L 13.085938 36.722656 Z M 13.085938 41.097656 " fill-opacity="1" fill-rule="evenodd"/><path fill="#000000" d="M 30.769531 42.859375 L 24.601562 42.859375 C 24.113281 42.859375 23.71875 42.464844 23.71875 41.980469 L 23.71875 35.84375 C 23.71875 35.359375 24.113281 34.964844 24.601562 34.964844 L 30.769531 34.964844 C 31.257812 34.964844 31.652344 35.359375 31.652344 35.84375 L 31.652344 41.976562 C 31.652344 42.464844 31.257812 42.859375 30.769531 42.859375 Z M 25.484375 41.097656 L 29.886719 41.097656 L 29.886719 36.722656 L 25.484375 36.722656 Z M 25.484375 41.097656 " fill-opacity="1" fill-rule="evenodd"/><path fill="#000000" d="M 43.171875 42.859375 L 37.003906 42.859375 C 36.515625 42.859375 36.121094 42.464844 36.121094 41.980469 L 36.121094 35.84375 C 36.121094 35.359375 36.515625 34.964844 37.003906 34.964844 L 43.167969 34.964844 C 43.65625 34.964844 44.054688 35.359375 44.054688 35.84375 L 44.054688 41.976562 C 44.054688 42.464844 43.660156 42.859375 43.171875 42.859375 Z M 37.886719 41.097656 L 42.285156 41.097656 L 42.285156 36.722656 L 37.886719 36.722656 Z M 37.886719 41.097656 " fill-opacity="1" fill-rule="evenodd"/><path fill="#000000" d="M 41.59375 19.40625 L 13.777344 19.40625 C 13.289062 19.40625 12.894531 19.011719 12.894531 18.527344 L 12.894531 0.875 C 12.894531 0.390625 13.289062 -0.00390625 13.777344 -0.00390625 L 41.59375 -0.00390625 C 42.082031 -0.00390625 42.476562 0.390625 42.476562 0.875 L 42.476562 18.527344 C 42.476562 19.011719 42.082031 19.40625 41.59375 19.40625 Z M 14.660156 17.648438 L 40.710938 17.648438 L 40.710938 1.753906 L 14.660156 1.753906 Z M 14.660156 17.648438 " fill-opacity="1" fill-rule="evenodd"/><path fill="#000000" d="M 37.277344 65.324219 L 18.09375 65.324219 C 16.929688 65.324219 16.929688 63.566406 18.09375 63.566406 L 37.277344 63.566406 C 38.441406 63.566406 38.441406 65.324219 37.277344 65.324219 Z M 37.277344 65.324219 " fill-opacity="1" fill-rule="evenodd"/><path fill="#000000" d="M 30.648438 58.371094 C 29.464844 58.371094 29.765625 56.78125 29.765625 55.433594 C 29.765625 54.277344 31.53125 54.277344 31.53125 55.433594 C 31.53125 56.78125 31.832031 58.371094 30.648438 58.371094 Z M 30.648438 58.371094 " fill-opacity="1" fill-rule="evenodd"/><path fill="#000000" d="M 24.722656 58.371094 C 23.539062 58.371094 23.839844 56.78125 23.839844 55.433594 C 23.839844 54.277344 25.605469 54.277344 25.605469 55.433594 C 25.605469 56.78125 25.90625 58.371094 24.722656 58.371094 Z M 24.722656 58.371094 " fill-opacity="1" fill-rule="evenodd"/></svg>