<svg xmlns="http://www.w3.org/2000/svg" xmlns:xlink="http://www.w3.org/1999/xlink" width="100" zoomAndPan="magnify" viewBox="0 0 75 74.999997" height="100" preserveAspectRatio="xMidYMid meet" version="1.0"><defs><clipPath id="097a557675"><path d="M 50 46 L 67 46 L 67 61.734375 L 50 61.734375 Z M 50 46 " clip-rule="nonzero"/></clipPath><clipPath id="cc37cc15a6"><path d="M 9 46 L 26 46 L 26 61.734375 L 9 61.734375 Z M 9 46 " clip-rule="nonzero"/></clipPath><clipPath id="665dfe58b6"><path d="M 1 12.984375 L 48 12.984375 L 48 19 L 1 19 Z M 1 12.984375 " clip-rule="nonzero"/></clipPath></defs><path fill="#000000" d="M 69.625 52.398438 C 69.152344 52.398438 68.769531 52.015625 68.769531 51.546875 L 68.769531 41.78125 C 68.769531 40.433594 67.65625 39.320312 66.296875 39.320312 L 44.15625 39.320312 C 43.03125 39.320312 43.03125 37.621094 44.15625 37.621094 L 66.296875 37.621094 C 68.601562 37.621094 70.480469 39.496094 70.480469 41.78125 L 70.480469 51.546875 C 70.480469 52.015625 70.097656 52.394531 69.625 52.394531 Z M 5.371094 52.398438 C 4.902344 52.398438 4.515625 52.015625 4.515625 51.546875 L 4.515625 43.542969 C 4.515625 42.421875 6.226562 42.421875 6.226562 43.542969 L 6.226562 51.546875 C 6.226562 52.015625 5.847656 52.398438 5.371094 52.398438 Z M 5.371094 52.398438 " fill-opacity="1" fill-rule="evenodd"/><path fill="#000000" d="M 66.308594 39.320312 L 44.15625 39.320312 C 43.683594 39.320312 43.300781 38.941406 43.300781 38.472656 L 43.300781 21.425781 C 43.300781 20.953125 43.683594 20.574219 44.15625 20.574219 L 56.972656 20.574219 C 57.285156 20.574219 57.574219 20.742188 57.726562 21.019531 L 66.984375 37.953125 C 67.460938 38.675781 66.894531 39.320312 66.308594 39.320312 Z M 45.011719 37.621094 L 64.855469 37.621094 L 56.464844 22.273438 L 45.011719 22.273438 Z M 45.011719 37.621094 " fill-opacity="1" fill-rule="evenodd"/><path fill="#000000" d="M 63.84375 34.839844 L 50.429688 34.839844 C 49.222656 34.839844 48.242188 33.863281 48.242188 32.664062 L 48.242188 26.707031 C 48.242188 25.507812 49.222656 24.53125 50.429688 24.53125 L 59.140625 24.53125 C 60.265625 24.53125 60.265625 26.234375 59.140625 26.234375 L 50.429688 26.234375 C 50.171875 26.234375 49.953125 26.449219 49.953125 26.707031 L 49.953125 32.664062 C 49.953125 32.921875 50.171875 33.136719 50.429688 33.136719 L 63.84375 33.136719 C 64.972656 33.136719 64.972656 34.839844 63.84375 34.839844 Z M 63.84375 34.839844 " fill-opacity="1" fill-rule="evenodd"/><path fill="#000000" d="M 44.15625 44.394531 L 5.371094 44.394531 C 4.902344 44.394531 4.515625 44.011719 4.515625 43.542969 L 4.515625 17.804688 C 4.515625 16.683594 6.226562 16.683594 6.226562 17.804688 L 6.226562 42.691406 L 43.300781 42.691406 L 43.300781 17.804688 C 43.300781 16.683594 45.011719 16.683594 45.011719 17.804688 L 45.011719 43.542969 C 45.011719 44.011719 44.628906 44.394531 44.15625 44.394531 Z M 44.15625 44.394531 " fill-opacity="1" fill-rule="evenodd"/><path fill="#000000" d="M 70.972656 56.726562 L 64.914062 56.726562 C 63.785156 56.726562 63.785156 55.027344 64.914062 55.027344 L 70.972656 55.027344 C 72.710938 55.027344 72.710938 52.394531 70.972656 52.394531 L 64.679688 52.394531 C 63.554688 52.394531 63.554688 50.695312 64.679688 50.695312 L 70.972656 50.695312 C 74.964844 50.695312 74.964844 56.726562 70.972656 56.726562 Z M 51.671875 56.726562 L 24.003906 56.726562 C 22.878906 56.726562 22.878906 55.027344 24.003906 55.027344 L 51.675781 55.027344 C 52.800781 55.027344 52.800781 56.726562 51.671875 56.726562 Z M 10.765625 56.726562 L 4.027344 56.726562 C 0.0351562 56.726562 0.0351562 50.695312 4.027344 50.695312 L 11 50.695312 C 12.125 50.695312 12.125 52.394531 11 52.394531 L 4.027344 52.394531 C 2.285156 52.394531 2.285156 55.027344 4.027344 55.027344 L 10.765625 55.023438 C 11.894531 55.023438 11.894531 56.726562 10.765625 56.726562 Z M 51.90625 52.398438 L 23.773438 52.398438 C 22.648438 52.398438 22.648438 50.695312 23.773438 50.695312 L 51.90625 50.695312 C 53.03125 50.695312 53.03125 52.398438 51.90625 52.398438 Z M 51.90625 52.398438 " fill-opacity="1" fill-rule="evenodd"/><g clip-path="url(#097a557675)"><path fill="#000000" d="M 58.292969 61.734375 C 54.035156 61.734375 50.570312 58.289062 50.570312 54.054688 C 50.570312 49.824219 54.035156 46.378906 58.292969 46.378906 C 62.550781 46.378906 66.015625 49.824219 66.015625 54.054688 C 66.015625 58.289062 62.550781 61.734375 58.292969 61.734375 Z M 58.292969 48.078125 C 54.980469 48.078125 52.28125 50.761719 52.28125 54.054688 C 52.28125 57.351562 54.980469 60.03125 58.292969 60.03125 C 61.605469 60.03125 64.300781 57.351562 64.300781 54.054688 C 64.300781 50.761719 61.605469 48.078125 58.292969 48.078125 Z M 58.292969 48.078125 " fill-opacity="1" fill-rule="evenodd"/></g><g clip-path="url(#cc37cc15a6)"><path fill="#000000" d="M 17.386719 61.734375 C 13.128906 61.734375 9.664062 58.289062 9.664062 54.054688 C 9.664062 49.824219 13.128906 46.378906 17.386719 46.378906 C 21.644531 46.378906 25.109375 49.824219 25.109375 54.054688 C 25.109375 58.289062 21.644531 61.734375 17.386719 61.734375 Z M 17.386719 48.078125 C 14.070312 48.078125 11.375 50.761719 11.375 54.054688 C 11.375 57.351562 14.070312 60.03125 17.386719 60.03125 C 20.699219 60.03125 23.398438 57.351562 23.398438 54.054688 C 23.398438 50.761719 20.699219 48.078125 17.386719 48.078125 Z M 17.386719 48.078125 " fill-opacity="1" fill-rule="evenodd"/></g><path fill="#000000" d="M 58.292969 58.046875 C 56.078125 58.046875 54.277344 56.257812 54.277344 54.054688 C 54.277344 51.855469 56.078125 50.0625 58.292969 50.0625 C 60.507812 50.0625 62.308594 51.855469 62.308594 54.054688 C 62.308594 56.257812 60.507812 58.046875 58.292969 58.046875 Z M 58.292969 51.765625 C 55.261719 51.765625 55.261719 56.347656 58.292969 56.347656 C 61.324219 56.347656 61.324219 51.765625 58.292969 51.765625 Z M 58.292969 51.765625 " fill-opacity="1" fill-rule="evenodd"/><path fill="#000000" d="M 17.386719 58.046875 C 15.171875 58.046875 13.371094 56.257812 13.371094 54.054688 C 13.371094 51.855469 15.171875 50.0625 17.386719 50.0625 C 19.601562 50.0625 21.398438 51.855469 21.398438 54.054688 C 21.398438 56.257812 19.597656 58.046875 17.386719 58.046875 Z M 17.386719 51.765625 C 14.351562 51.765625 14.355469 56.347656 17.386719 56.347656 C 20.417969 56.347656 20.417969 51.765625 17.386719 51.765625 Z M 17.386719 51.765625 " fill-opacity="1" fill-rule="evenodd"/><g clip-path="url(#665dfe58b6)"><path fill="#000000" d="M 46.78125 18.65625 L 2.75 18.65625 C 2.277344 18.65625 1.894531 18.273438 1.894531 17.804688 L 1.894531 13.832031 C 1.894531 13.363281 2.277344 12.984375 2.75 12.984375 L 46.78125 12.984375 C 47.253906 12.984375 47.636719 13.363281 47.636719 13.832031 L 47.636719 17.804688 C 47.636719 18.277344 47.253906 18.65625 46.78125 18.65625 Z M 3.605469 16.953125 L 45.925781 16.953125 L 45.925781 14.683594 L 3.605469 14.683594 Z M 3.605469 16.953125 " fill-opacity="1" fill-rule="evenodd"/></g><path fill="#000000" d="M 26.976562 38.03125 L 22.554688 38.03125 C 22.082031 38.03125 21.699219 37.652344 21.699219 37.179688 L 21.699219 33.722656 L 18.21875 33.722656 C 17.746094 33.722656 17.363281 33.34375 17.363281 32.871094 L 17.363281 28.472656 C 17.363281 28.003906 17.746094 27.625 18.21875 27.625 L 21.699219 27.625 L 21.699219 24.167969 C 21.699219 23.695312 22.082031 23.316406 22.554688 23.316406 L 26.976562 23.316406 C 27.449219 23.316406 27.832031 23.695312 27.832031 24.167969 L 27.832031 27.625 L 31.308594 27.625 C 31.78125 27.625 32.167969 28.003906 32.167969 28.472656 L 32.167969 32.871094 C 32.167969 33.34375 31.78125 33.722656 31.308594 33.722656 L 27.832031 33.722656 L 27.832031 37.179688 C 27.832031 37.652344 27.449219 38.03125 26.976562 38.03125 Z M 23.410156 36.332031 L 26.121094 36.332031 C 26.121094 31.304688 25.398438 32.023438 30.453125 32.023438 L 30.453125 29.324219 C 25.398438 29.324219 26.121094 30.042969 26.121094 25.015625 L 23.410156 25.015625 C 23.410156 30.042969 24.132812 29.324219 19.074219 29.324219 L 19.074219 32.023438 C 24.132812 32.023438 23.410156 31.304688 23.410156 36.332031 Z M 23.410156 36.332031 " fill-opacity="1" fill-rule="evenodd"/><path fill="#000000" d="M 69.625 48.484375 C 64.769531 48.484375 65.558594 49.296875 65.558594 43.671875 C 65.558594 43.203125 65.941406 42.820312 66.414062 42.820312 L 69.625 42.820312 C 70.75 42.820312 70.75 44.523438 69.625 44.523438 L 67.269531 44.523438 L 67.269531 46.78125 C 68.792969 46.78125 70.480469 46.460938 70.480469 47.632812 C 70.480469 48.101562 70.097656 48.484375 69.625 48.484375 Z M 69.625 48.484375 " fill-opacity="1" fill-rule="evenodd"/><path fill="#000000" d="M 56.421875 42.757812 L 51.261719 42.757812 C 50.132812 42.757812 50.136719 41.058594 51.261719 41.058594 L 56.421875 41.058594 C 57.546875 41.058594 57.546875 42.757812 56.421875 42.757812 Z M 56.421875 42.757812 " fill-opacity="1" fill-rule="evenodd"/></svg>