<svg xmlns="http://www.w3.org/2000/svg" xmlns:xlink="http://www.w3.org/1999/xlink" width="100" zoomAndPan="magnify" viewBox="0 0 75 74.999997" height="100" preserveAspectRatio="xMidYMid meet" version="1.0"><path fill="#000000" d="M 5.570312 58.023438 C 7.113281 58.023438 8.367188 56.75 8.367188 55.191406 C 8.367188 53.625 7.113281 52.351562 5.570312 52.351562 C 4.027344 52.351562 2.773438 53.625 2.773438 55.191406 C 2.773438 56.75 4.027344 58.023438 5.570312 58.023438 Z M 5.570312 58.023438 " fill-opacity="1" fill-rule="nonzero"/><path fill="#000000" d="M 8.871094 61.863281 C 7.632812 61.863281 6.628906 62.882812 6.628906 64.136719 C 6.628906 65.390625 7.632812 66.410156 8.871094 66.410156 C 10.109375 66.410156 11.113281 65.390625 11.113281 64.136719 C 11.113281 62.882812 10.109375 61.863281 8.871094 61.863281 Z M 8.871094 61.863281 " fill-opacity="1" fill-rule="nonzero"/><path fill="#000000" d="M 74.378906 51.851562 L 72.410156 51.851562 L 72.410156 42.710938 C 73.054688 42.429688 73.515625 41.675781 73.515625 40.785156 C 73.515625 39.648438 72.773438 38.726562 71.863281 38.726562 L 62.328125 38.726562 C 61.417969 38.726562 60.675781 39.648438 60.675781 40.785156 C 60.675781 41.769531 61.238281 42.589844 61.984375 42.789062 L 61.984375 51.851562 L 57.015625 51.851562 L 57.015625 42.75 C 57.710938 42.507812 58.222656 41.722656 58.222656 40.785156 C 58.222656 40.375 58.128906 39.996094 57.960938 39.6875 L 57.960938 12.652344 C 57.960938 12.324219 57.695312 12.058594 57.367188 12.058594 L 53.90625 12.058594 C 53.578125 12.058594 53.308594 12.324219 53.308594 12.652344 L 53.308594 23.59375 L 49.222656 23.59375 L 49.222656 23.367188 C 49.222656 23.039062 48.957031 22.773438 48.628906 22.773438 L 46.257812 22.773438 L 46.257812 19.753906 C 46.640625 19.65625 47.003906 19.472656 47.296875 19.191406 C 47.734375 18.769531 47.984375 18.191406 47.984375 17.597656 C 47.984375 16.359375 46.941406 15.355469 45.660156 15.355469 L 37.019531 15.355469 C 36.40625 15.355469 35.824219 15.582031 35.382812 16 C 34.945312 16.414062 34.691406 16.996094 34.691406 17.597656 C 34.691406 18.632812 35.429688 19.5 36.421875 19.753906 L 36.421875 22.769531 L 33.5625 22.769531 C 33.234375 22.769531 32.96875 23.039062 32.96875 23.367188 L 32.96875 23.59375 L 30.101562 23.59375 C 29.769531 23.59375 29.503906 23.859375 29.503906 24.1875 L 29.503906 27.484375 C 29.503906 27.8125 29.769531 28.078125 30.101562 28.078125 L 32.96875 28.078125 L 32.96875 28.308594 C 32.96875 28.636719 33.234375 28.902344 33.5625 28.902344 L 36.421875 28.902344 L 36.421875 33.871094 L 32.714844 38.726562 L 31.734375 38.726562 C 30.824219 38.726562 30.082031 39.648438 30.082031 40.78125 C 30.082031 41.167969 30.175781 41.535156 30.332031 41.851562 L 29.601562 42.808594 C 29.1875 43.445312 28.511719 44.765625 28.644531 46.476562 C 28.722656 47.441406 29.054688 48.394531 29.605469 49.230469 C 29.714844 49.398438 29.902344 49.496094 30.101562 49.496094 L 31.195312 49.496094 L 31.195312 51.851562 L 29.21875 51.851562 C 28.890625 51.851562 28.625 52.121094 28.625 52.449219 L 28.625 53.191406 C 28.308594 53.019531 27.953125 52.914062 27.574219 52.914062 L 10.632812 52.914062 C 10.347656 52.273438 9.953125 51.691406 9.464844 51.199219 L 9.464844 42.316406 C 9.464844 41.109375 10.433594 40.125 11.617188 40.125 L 13.417969 40.125 L 17.484375 46.328125 C 17.484375 46.328125 17.488281 46.328125 17.488281 46.328125 L 17.492188 46.339844 C 17.511719 46.367188 17.542969 46.390625 17.570312 46.414062 C 17.597656 46.445312 17.617188 46.476562 17.648438 46.5 L 20.410156 48.425781 C 20.511719 48.5 20.628906 48.535156 20.75 48.535156 C 20.867188 48.535156 20.980469 48.5 21.082031 48.433594 L 26.25 44.929688 C 26.449219 44.792969 26.550781 44.550781 26.5 44.316406 L 25.8125 40.996094 L 25.808594 40.984375 C 25.804688 40.957031 25.785156 40.933594 25.777344 40.90625 C 25.761719 40.863281 25.75 40.820312 25.726562 40.777344 L 13.65625 22.371094 C 13.570312 22.234375 13.429688 22.144531 13.273438 22.113281 C 13.117188 22.082031 12.957031 22.113281 12.824219 22.203125 L 10.742188 23.617188 L 9.5 21.722656 C 9.605469 21.535156 9.613281 21.296875 9.484375 21.101562 L 7.671875 18.335938 C 7.585938 18.203125 7.445312 18.109375 7.289062 18.078125 C 7.132812 18.046875 6.96875 18.082031 6.839844 18.171875 L 4.226562 19.957031 C 3.960938 20.140625 3.886719 20.503906 4.066406 20.773438 L 5.878906 23.535156 C 5.96875 23.667969 6.105469 23.757812 6.261719 23.789062 C 6.300781 23.796875 6.339844 23.800781 6.378906 23.800781 C 6.402344 23.800781 6.421875 23.792969 6.445312 23.792969 L 7.6875 25.683594 L 5.585938 27.109375 C 5.316406 27.292969 5.246094 27.65625 5.421875 27.929688 L 6.808594 30.039062 C 6.808594 30.042969 6.808594 30.042969 6.808594 30.042969 L 8.265625 32.265625 C 4.566406 32.648438 1.671875 35.824219 1.671875 39.675781 L 1.671875 51.195312 C 0.625 52.25 0.0273438 53.6875 0.0273438 55.191406 C 0.0273438 56.691406 0.625 58.125 1.671875 59.179688 L 1.671875 67.546875 C 0.726562 67.8125 0.0273438 68.683594 0.0273438 69.726562 C 0.0273438 70.980469 1.03125 72 2.269531 72 L 27.574219 72 C 27.984375 72 28.367188 71.878906 28.703125 71.679688 C 28.800781 71.867188 28.992188 72 29.21875 72 L 74.378906 72 C 74.707031 72 74.972656 71.734375 74.972656 71.40625 L 74.972656 52.449219 C 74.972656 52.121094 74.707031 51.851562 74.378906 51.851562 Z M 62.328125 39.914062 L 71.863281 39.914062 C 72.046875 39.914062 72.328125 40.261719 72.328125 40.785156 C 72.328125 41.300781 72.046875 41.644531 71.863281 41.644531 L 62.328125 41.644531 C 62.144531 41.644531 61.863281 41.300781 61.863281 40.785156 C 61.863281 40.261719 62.144531 39.914062 62.328125 39.914062 Z M 63.171875 42.835938 L 71.222656 42.835938 L 71.222656 51.851562 L 63.171875 51.851562 Z M 71.222656 55.429688 L 63.171875 55.429688 L 63.171875 53.042969 L 71.222656 53.042969 Z M 55.828125 58.105469 L 47.777344 58.105469 L 47.777344 53.042969 L 55.828125 53.042969 Z M 47.777344 51.851562 L 47.777344 42.835938 L 55.828125 42.835938 L 55.828125 51.851562 Z M 32.382812 42.835938 L 40.425781 42.835938 L 40.425781 45.929688 L 32.382812 45.929688 Z M 48.628906 28.90625 C 48.957031 28.90625 49.222656 28.636719 49.222656 28.308594 L 49.222656 28.078125 L 53.308594 28.078125 L 53.308594 38.726562 L 49.964844 38.726562 L 46.257812 33.871094 L 46.257812 28.90625 Z M 41.617188 49.496094 L 46.589844 49.496094 L 46.589844 51.851562 L 41.617188 51.851562 Z M 56.570312 41.644531 L 47.035156 41.644531 C 46.847656 41.644531 46.566406 41.300781 46.566406 40.785156 C 46.566406 40.261719 46.847656 39.914062 47.035156 39.914062 L 56.570312 39.914062 C 56.660156 39.914062 56.769531 40.003906 56.867188 40.164062 C 56.976562 40.324219 57.035156 40.542969 57.035156 40.785156 C 57.035156 41.285156 56.757812 41.644531 56.570312 41.644531 Z M 54.5 13.25 L 56.773438 13.25 L 56.773438 38.753906 C 56.707031 38.742188 56.640625 38.726562 56.570312 38.726562 L 54.5 38.726562 Z M 53.308594 26.886719 L 49.222656 26.886719 L 49.222656 24.78125 L 53.308594 24.78125 Z M 35.882812 17.597656 C 35.882812 17.320312 35.996094 17.058594 36.199219 16.863281 C 36.417969 16.65625 36.710938 16.542969 37.019531 16.542969 L 45.660156 16.542969 C 46.289062 16.542969 46.796875 17.015625 46.796875 17.597656 C 46.796875 17.867188 46.679688 18.136719 46.476562 18.332031 C 46.257812 18.535156 45.96875 18.648438 45.660156 18.648438 L 37.019531 18.648438 C 36.390625 18.648438 35.882812 18.175781 35.882812 17.597656 Z M 30.695312 24.78125 L 32.96875 24.78125 L 32.96875 26.886719 L 30.695312 26.886719 Z M 34.15625 27.484375 L 34.15625 23.960938 L 48.035156 23.960938 L 48.035156 27.714844 L 34.15625 27.714844 Z M 31.734375 39.914062 L 41.269531 39.914062 C 41.457031 39.914062 41.734375 40.261719 41.734375 40.785156 C 41.734375 41.300781 41.457031 41.644531 41.269531 41.644531 L 31.734375 41.644531 C 31.636719 41.644531 31.539062 41.546875 31.5 41.5 C 31.355469 41.335938 31.273438 41.066406 31.273438 40.78125 C 31.273438 40.261719 31.550781 39.914062 31.734375 39.914062 Z M 32.382812 47.117188 L 40.425781 47.117188 L 40.425781 51.851562 L 32.382812 51.851562 Z M 32.382812 53.042969 L 40.425781 53.042969 L 40.425781 61.882812 C 40.425781 64.039062 38.621094 65.796875 36.40625 65.796875 C 34.1875 65.796875 32.382812 64.039062 32.382812 61.882812 Z M 2.863281 67.457031 L 2.863281 60.09375 C 3.683594 60.5625 4.613281 60.816406 5.570312 60.816406 C 6.761719 60.816406 7.925781 60.417969 8.878906 59.699219 L 23.710938 59.699219 C 24.601562 59.699219 25.324219 60.441406 25.324219 61.351562 L 25.324219 67.457031 Z M 23.710938 58.507812 L 10.039062 58.507812 C 10.273438 58.183594 10.46875 57.832031 10.628906 57.460938 L 27.574219 57.460938 C 27.953125 57.460938 28.308594 57.355469 28.625 57.183594 L 28.625 67.734375 C 28.308594 67.5625 27.953125 67.457031 27.574219 67.457031 L 26.511719 67.457031 L 26.511719 61.351562 C 26.511719 59.785156 25.257812 58.507812 23.710938 58.507812 Z M 28.625 55.191406 C 28.625 55.777344 28.144531 56.273438 27.574219 56.273438 L 11.007812 56.273438 C 11.074219 55.914062 11.113281 55.554688 11.113281 55.191406 C 11.113281 54.824219 11.074219 54.460938 11.007812 54.101562 L 27.574219 54.101562 C 28.144531 54.101562 28.625 54.601562 28.625 55.191406 Z M 18.15625 45.179688 L 8.121094 29.871094 L 14.375 25.632812 L 24.410156 40.941406 Z M 7.011719 19.496094 L 7.988281 20.984375 C 7.910156 21.117188 7.886719 21.277344 7.929688 21.429688 L 6.785156 22.210938 C 6.664062 22.117188 6.511719 22.074219 6.359375 22.089844 L 5.382812 20.609375 Z M 7.472656 23.183594 L 8.550781 22.445312 L 9.757812 24.28125 L 8.675781 25.015625 Z M 9.019531 33.414062 L 12.636719 38.933594 L 11.617188 38.933594 C 9.777344 38.933594 8.277344 40.453125 8.277344 42.316406 L 8.277344 50.28125 C 7.453125 49.8125 6.527344 49.554688 5.570312 49.554688 C 4.613281 49.554688 3.683594 49.8125 2.863281 50.277344 L 2.863281 39.675781 C 2.863281 36.222656 5.625 33.414062 9.019531 33.414062 Z M 2.667969 51.875 C 3.46875 51.148438 4.5 50.746094 5.570312 50.746094 C 6.640625 50.746094 7.671875 51.148438 8.46875 51.875 C 9.011719 52.371094 9.429688 53.003906 9.675781 53.699219 C 9.839844 54.179688 9.925781 54.683594 9.925781 55.191406 C 9.925781 55.695312 9.839844 56.195312 9.675781 56.671875 C 9.40625 57.445312 8.933594 58.125 8.300781 58.644531 C 7.53125 59.277344 6.5625 59.628906 5.570312 59.628906 C 4.5 59.628906 3.46875 59.226562 2.667969 58.496094 C 1.746094 57.65625 1.214844 56.449219 1.214844 55.191406 C 1.214844 53.925781 1.746094 52.71875 2.667969 51.875 Z M 27.574219 70.808594 L 2.269531 70.808594 C 1.6875 70.808594 1.214844 70.324219 1.214844 69.726562 C 1.214844 69.128906 1.6875 68.644531 2.269531 68.644531 L 27.574219 68.644531 C 28.152344 68.644531 28.625 69.128906 28.625 69.726562 C 28.625 70.324219 28.152344 70.808594 27.574219 70.808594 Z M 73.785156 70.808594 L 29.816406 70.808594 L 29.816406 53.042969 L 31.195312 53.042969 L 31.195312 61.882812 C 31.195312 64.695312 33.53125 66.984375 36.40625 66.984375 C 39.277344 66.984375 41.617188 64.695312 41.617188 61.882812 L 41.617188 53.042969 L 46.589844 53.042969 L 46.589844 61.882812 C 46.589844 64.695312 48.925781 66.984375 51.800781 66.984375 C 54.675781 66.984375 57.015625 64.695312 57.015625 61.882812 L 57.015625 53.042969 L 61.984375 53.042969 L 61.984375 61.882812 C 61.984375 64.695312 64.320312 66.984375 67.195312 66.984375 C 70.070312 66.984375 72.410156 64.695312 72.410156 61.882812 L 72.410156 53.042969 L 73.785156 53.042969 Z M 73.785156 70.808594 " fill-opacity="1" fill-rule="nonzero"/><path fill="#000000" d="M 36.15625 9.132812 C 37.914062 9.132812 39.34375 7.753906 39.34375 6.0625 C 39.34375 4.375 37.914062 3 36.15625 3 C 34.398438 3 32.96875 4.375 32.96875 6.0625 C 32.96875 7.753906 34.398438 9.132812 36.15625 9.132812 Z M 36.15625 9.132812 " fill-opacity="1" fill-rule="nonzero"/><path fill="#000000" d="M 38.15625 11.832031 C 38.15625 13.070312 39.195312 14.074219 40.472656 14.074219 C 41.757812 14.074219 42.800781 13.070312 42.800781 11.832031 C 42.800781 10.597656 41.757812 9.589844 40.472656 9.589844 C 39.195312 9.589844 38.15625 10.597656 38.15625 11.832031 Z M 38.15625 11.832031 " fill-opacity="1" fill-rule="nonzero"/></svg>