<svg xmlns="http://www.w3.org/2000/svg" xmlns:xlink="http://www.w3.org/1999/xlink" width="100" zoomAndPan="magnify" viewBox="0 0 75 74.999997" height="100" preserveAspectRatio="xMidYMid meet" version="1.0"><path fill="#000000" d="M 26.367188 72.730469 L 2.269531 72.730469 L 2.269531 70.566406 C 2.269531 66.023438 5.914062 62.390625 10.453125 62.390625 L 18.183594 62.390625 C 22.726562 62.390625 26.367188 66.023438 26.367188 70.566406 Z M 8.410156 52.613281 C 8.410156 49.320312 11.132812 46.59375 14.433594 46.59375 C 17.726562 46.59375 20.453125 49.320312 20.453125 52.613281 C 20.453125 55.910156 17.726562 58.632812 14.433594 58.632812 C 11.132812 58.632812 8.410156 55.910156 8.410156 52.613281 Z M 18.183594 60.113281 L 17.949219 60.113281 C 20.792969 58.753906 22.726562 55.910156 22.726562 52.613281 C 22.726562 48.066406 18.976562 44.316406 14.433594 44.316406 C 9.886719 44.316406 6.140625 48.066406 6.140625 52.613281 C 6.140625 55.910156 8.070312 58.753906 10.90625 60.113281 L 10.566406 60.113281 C 4.660156 60.113281 0 64.773438 0 70.566406 L 0 73.863281 C 0 74.546875 0.453125 75 1.136719 75 L 27.5 75 C 28.179688 75 28.636719 74.546875 28.636719 73.863281 L 28.636719 70.566406 C 28.636719 64.773438 23.976562 60.113281 18.183594 60.113281 " fill-opacity="1" fill-rule="nonzero"/><path fill="#000000" d="M 72.722656 72.730469 L 42.386719 72.730469 L 42.386719 71.136719 C 42.386719 64.660156 47.613281 59.433594 54.09375 59.433594 L 61.023438 59.433594 C 67.496094 59.433594 72.722656 64.660156 72.722656 71.136719 Z M 49.882812 47.613281 C 49.882812 43.414062 53.414062 39.890625 57.613281 39.890625 C 61.9375 39.890625 65.34375 43.300781 65.34375 47.613281 C 65.34375 51.933594 61.816406 55.34375 57.613281 55.34375 C 53.414062 55.34375 49.882812 51.820312 49.882812 47.613281 Z M 61.023438 57.15625 L 60.789062 57.15625 C 64.773438 55.910156 67.730469 52.042969 67.730469 47.613281 C 67.730469 42.160156 63.179688 37.613281 57.726562 37.613281 C 52.269531 37.613281 47.726562 42.039062 47.726562 47.613281 C 47.726562 52.042969 50.683594 55.796875 54.660156 57.15625 L 54.207031 57.15625 C 46.476562 57.15625 40.222656 63.40625 40.222656 71.136719 L 40.222656 73.863281 C 40.222656 74.546875 40.683594 75 41.363281 75 L 73.867188 75 C 74.546875 75 75 74.546875 75 73.863281 L 75 71.136719 C 75 63.40625 68.753906 57.15625 61.023438 57.15625 " fill-opacity="1" fill-rule="nonzero"/><path fill="#000000" d="M 27.160156 9.660156 C 35.570312 9.660156 42.273438 15.453125 42.273438 22.5 C 42.273438 29.542969 35.457031 35.34375 27.160156 35.34375 C 25.90625 35.34375 24.542969 35.230469 23.183594 34.890625 C 22.957031 34.769531 22.613281 34.890625 22.386719 34.996094 L 15 39.089844 L 17.160156 33.183594 C 17.386719 32.726562 17.160156 32.160156 16.820312 31.933594 C 13.75 29.429688 11.933594 26.132812 11.933594 22.613281 C 12.046875 15.453125 18.863281 9.660156 27.160156 9.660156 Z M 46.023438 2.269531 C 54.433594 2.269531 61.136719 8.070312 61.136719 15.113281 C 61.136719 18.75 59.433594 22.046875 56.25 24.429688 C 55.910156 24.769531 55.675781 25.230469 55.910156 25.679688 L 58.066406 31.585938 L 50.683594 27.5 C 50.449219 27.386719 50.117188 27.273438 49.882812 27.386719 C 47.613281 27.839844 45.449219 27.953125 43.414062 27.613281 C 44.089844 26.019531 44.542969 24.203125 44.542969 22.386719 C 44.542969 15.90625 39.777344 10.339844 33.066406 8.183594 C 35.910156 4.660156 40.796875 2.269531 46.023438 2.269531 Z M 14.773438 33.066406 L 11.820312 41.023438 C 11.707031 41.480469 11.820312 41.929688 12.15625 42.273438 C 12.496094 42.613281 13.070312 42.613281 13.410156 42.386719 L 23.066406 37.046875 C 24.429688 37.273438 25.792969 37.5 27.160156 37.5 C 33.75 37.5 39.429688 34.316406 42.386719 29.777344 C 44.890625 30.230469 47.386719 30.230469 50.003906 29.65625 L 59.660156 34.996094 C 60.113281 35.230469 60.566406 35.117188 60.910156 34.890625 C 61.25 34.542969 61.363281 34.089844 61.25 33.636719 L 58.292969 25.679688 C 61.476562 22.839844 63.40625 19.089844 63.40625 15.113281 C 63.40625 6.816406 55.675781 0 46.023438 0 C 39.65625 0 33.863281 2.957031 30.796875 7.722656 C 29.65625 7.496094 28.410156 7.382812 27.160156 7.382812 C 17.5 7.382812 9.773438 14.203125 9.773438 22.5 C 9.773438 26.472656 11.59375 30.34375 14.773438 33.066406 " fill-opacity="1" fill-rule="nonzero"/><path fill="#000000" d="M 16.707031 22.726562 C 16.707031 21.820312 17.5 21.019531 18.410156 21.019531 C 19.316406 21.019531 20.113281 21.820312 20.113281 22.726562 C 20.113281 23.636719 19.316406 24.429688 18.410156 24.429688 C 17.5 24.429688 16.707031 23.636719 16.707031 22.726562 Z M 22.386719 22.726562 C 22.386719 20.566406 20.566406 18.75 18.410156 18.75 C 16.246094 18.75 14.433594 20.453125 14.433594 22.726562 C 14.433594 24.890625 16.246094 26.707031 18.410156 26.707031 C 20.566406 26.707031 22.386719 24.890625 22.386719 22.726562 " fill-opacity="1" fill-rule="nonzero"/><path fill="#000000" d="M 27.160156 21.019531 C 28.070312 21.019531 28.863281 21.820312 28.863281 22.726562 C 28.863281 23.636719 28.070312 24.429688 27.160156 24.429688 C 26.246094 24.429688 25.453125 23.636719 25.453125 22.726562 C 25.453125 21.707031 26.246094 21.019531 27.160156 21.019531 Z M 27.160156 26.707031 C 29.316406 26.707031 31.132812 24.890625 31.132812 22.726562 C 31.132812 20.566406 29.316406 18.75 27.160156 18.75 C 25.003906 18.75 23.183594 20.566406 23.183594 22.726562 C 23.183594 24.890625 25.003906 26.707031 27.160156 26.707031 " fill-opacity="1" fill-rule="nonzero"/><path fill="#000000" d="M 35.910156 21.019531 C 36.820312 21.019531 37.613281 21.820312 37.613281 22.726562 C 37.613281 23.636719 36.820312 24.429688 35.910156 24.429688 C 34.996094 24.429688 34.203125 23.636719 34.203125 22.726562 C 34.203125 21.707031 34.996094 21.019531 35.910156 21.019531 Z M 35.910156 26.707031 C 38.066406 26.707031 39.890625 24.890625 39.890625 22.726562 C 39.890625 20.566406 38.066406 18.75 35.910156 18.75 C 33.75 18.75 31.933594 20.566406 31.933594 22.726562 C 31.933594 24.890625 33.75 26.707031 35.910156 26.707031 " fill-opacity="1" fill-rule="nonzero"/><path fill="#000000" d="M 42.160156 10.226562 L 56.136719 10.226562 C 56.824219 10.226562 57.269531 9.773438 57.269531 9.089844 C 57.269531 8.410156 56.824219 7.957031 56.136719 7.957031 L 42.160156 7.957031 C 41.480469 7.957031 41.023438 8.410156 41.023438 9.089844 C 41.023438 9.660156 41.59375 10.226562 42.160156 10.226562 " fill-opacity="1" fill-rule="nonzero"/><path fill="#000000" d="M 56.136719 13.070312 L 45.570312 13.070312 C 44.890625 13.070312 44.429688 13.523438 44.429688 14.203125 C 44.429688 14.886719 44.890625 15.339844 45.570312 15.339844 L 56.136719 15.339844 C 56.824219 15.339844 57.269531 14.886719 57.269531 14.203125 C 57.269531 13.523438 56.824219 13.070312 56.136719 13.070312 " fill-opacity="1" fill-rule="nonzero"/><path fill="#000000" d="M 56.136719 18.183594 L 47.839844 18.183594 C 47.15625 18.183594 46.707031 18.636719 46.707031 19.316406 C 46.707031 20 47.15625 20.453125 47.839844 20.453125 L 56.136719 20.453125 C 56.824219 20.453125 57.269531 20 57.269531 19.316406 C 57.269531 18.636719 56.824219 18.183594 56.136719 18.183594 " fill-opacity="1" fill-rule="nonzero"/></svg>